<svg xmlns="http://www.w3.org/2000/svg" xmlns:xlink="http://www.w3.org/1999/xlink" width="292" height="16" version="1.1" viewBox="0 0 292 16"><title>Browser</title><desc>Created with Sketch.</desc><defs><linearGradient id="linearGradient-1" x1="50%" x2="50%" y1="0%" y2="100%"><stop offset="0%" stop-color="#FFF"/><stop offset="100%" stop-color="#FAFBFC"/></linearGradient><linearGradient id="linearGradient-2" x1="50%" x2="50%" y1="0%" y2="100%"><stop offset="0%" stop-color="#FFF"/><stop offset="100%" stop-color="#FAFBFC"/></linearGradient></defs><g id="Page-1" fill="none" fill-rule="evenodd" stroke="none" stroke-width="1"><g id="demo"><g id="Browser"><g id="Mask"><g id="Rectangle"><g id="path-68-link" fill="#000" fill-rule="nonzero"><path id="path-68" d="M2.65454545,0 L289.345455,0 C290.81152,0 292,1.18848048 292,2.65454545 L292,15.9272727 L292,15.9272727 L0,15.9272727 L0,2.65454545 C0,1.18848048 1.18848048,0 2.65454545,0 Z"/></g><g id="path-68-link" fill="url(#linearGradient-2)"><path id="path-68" d="M2.65454545,0 L289.345455,0 C290.81152,0 292,1.18848048 292,2.65454545 L292,15.9272727 L292,15.9272727 L0,15.9272727 L0,2.65454545 C0,1.18848048 1.18848048,0 2.65454545,0 Z"/></g></g><circle id="Oval" cx="21.236" cy="7.964" r="2.124" fill="#29CF42" fill-rule="nonzero"/><circle id="Oval" cx="14.335" cy="7.964" r="2.124" fill="#FFC02F" fill-rule="nonzero"/><circle id="Oval" cx="7.433" cy="7.964" r="2.124" fill="#FF554F" fill-rule="nonzero"/></g></g></g></g></svg>